<svg id="Layer_1" data-name="Layer 1" xmlns="http://www.w3.org/2000/svg" viewBox="0 0 717.15 492.92"><path d="M427.34,318.75l-.22-5.77c-1.78,32-15.88,64.64-41,83.84-23,17.58-53.64,27.27-86.33,27.27s-63.35-9.69-86.33-27.27c-22.33-17.09-38.85-40.58-42.76-68.14l1.32-248.14-40.12,0,.22,223.86H132v8.37c0,2.73.06,5.47.2,8.16l1.15,12.56c10.1,78.79,77.06,133.14,165.55,133.14,92.51,0,161.24-59.83,166.53-143.43h.37V160.68H427.34Z"/><polygon points="411.72 31.63 315.38 160.7 357.67 160.7 411.98 81.19 465.78 160.68 508.07 160.7 411.72 31.63"/><path d="M298.88,353.25c-2.26,0-55.08-.41-58.6-36.33l-.23-236.45-38.67,0-2.48,231.3c0,56.36,53.64,82,100.93,82s98.18-25.67,98.18-82V160.7H357.67V312.81C357.67,352.79,301.28,353.25,298.88,353.25Z"/><path d="M596.19,179.39q21.12,0,36.66,6.78a70.92,70.92,0,0,1,25.71,18.53,74.59,74.59,0,0,1,14.94,27.7,120.16,120.16,0,0,1,4.79,34.67q0,44.24-23.72,66.36T585,355.55H559.12V464H485V179.39ZM573.07,302.14q13.95,0,21.32-8.37t7.37-26.3q0-34.68-28.69-34.67h-14v69.34Z"/><path d="M54.19,463.36H36V409.8H54.19V426h64.19v21.47H54.19Z"/><path d="M36,356.12H53.5v27.36H67.58V357.85H84.44v25.63h16.39v-28.4h17.55V405H36Z"/><path d="M36,306.71l82.43-20.08v22.85L104,311.68v17.08L118.38,331v22.51L36,333.72Zm16.86,13.62,35,5.89v-12l-35,5.88Z"/><path d="M36,253.15l48.83-8.66v-.23L36,235.6V204.9h82.43V225H57v.23l61.42,11.43v15.47L57,263.54v.23h61.42v20.09H36Z"/><path d="M36,146.72H53.5v27.35H67.58V148.45H84.44v25.62h16.39V145.68h17.55v49.87H36Z"/><path d="M36,106.66c0-6.24,1.14-11.08,3.41-14.55a21.14,21.14,0,0,1,9.12-7.79,38.78,38.78,0,0,1,13.16-3.17q7.44-.59,15.52-.58t15.53.58a38.84,38.84,0,0,1,13.16,3.17A21.14,21.14,0,0,1,115,92.11q3.41,5.2,3.41,14.55v31.17H36Zm67,5.42a11.8,11.8,0,0,0-.87-5,5.93,5.93,0,0,0-3.64-2.83A30,30,0,0,0,90.55,103q-5.07-.28-13.39-.29T63.77,103a30.18,30.18,0,0,0-7.85,1.27,5.91,5.91,0,0,0-3.63,2.83,11.8,11.8,0,0,0-.87,5v4.28h51.49Z"/></svg>